<?xml version="1.0" standalone="no"?>
<svg xmlns:mydata="http://www.w3.org/2000/svg"
     xmlns="http://www.w3.org/2000/svg" xmlns:xlink="http://www.w3.org/1999/xlink" viewBox="0 0 550 470" preserveAspectRatio="xMaxYMax meet"
     class="main"
     style="transform: rotate3d(0, 0, 0, 0deg) rotateY(0deg) rotateX(0deg) rotate(0deg) skew(0deg, 0deg) translate(0px, 0px) translateZ(100px); width: 36%; height: auto; top: 6.92132%; left: 32%;">
    <g style="fill: rgb(29, 27, 132); opacity: 1;">
        <path d="M245.52744,165.23675c-9.05887,3.83141 -17.08127,9.23937 -24.0658,16.22531c-6.98594,6.98452 -12.3939,15.00693 -16.22531,24.0658c-3.96819,9.38039 -5.95088,19.20357 -5.95088,29.47235c0,10.26738 1.98269,20.09197 5.95088,29.47235c3.83094,9.05887 9.23937,17.0808 16.22531,24.0658c6.98452,6.98594 15.00693,12.3939 24.0658,16.22531c9.38039,3.96819 19.20357,5.95088 29.47235,5.95088c10.26879,0 20.09197,-1.98269 29.47235,-5.95088c9.05887,-3.83141 17.08127,-9.23937 24.0658,-16.22531c6.98594,-6.98452 12.3939,-15.00693 16.22531,-24.0658c3.96819,-9.38039 5.95229,-19.20498 5.95229,-29.47235c0,-10.26879 -1.9841,-20.09197 -5.95229,-29.47235c-3.83141,-9.05887 -9.23937,-17.08127 -16.22531,-24.0658c-6.98452,-6.98594 -15.00693,-12.3939 -24.0658,-16.22531c-9.38039,-3.96819 -19.20451,-5.95229 -29.47235,-5.95229c-10.26879,0 -20.09197,1.9841 -29.47235,5.95229zM247.79639,299.39942c-8.36225,-3.53668 -15.767,-8.52865 -22.21708,-14.97872c-6.45007,-6.45007 -11.44204,-13.85624 -14.97872,-22.21708c-3.66078,-8.65415 -5.49116,-17.7229 -5.49116,-27.20341c0,-9.48051 1.83039,-18.54925 5.49116,-27.20341c3.53668,-8.36225 8.52865,-15.767 14.97872,-22.21708c6.45007,-6.45007 13.85483,-11.44204 22.21708,-14.97872c8.65415,-3.66078 17.7229,-5.49116 27.20341,-5.49116c9.48051,0 18.54925,1.83039 27.20341,5.49116c8.36225,3.53668 15.767,8.52865 22.21708,14.97872c6.45007,6.45007 11.44345,13.85483 14.97872,22.21708c3.66078,8.65462 5.49116,17.72243 5.49116,27.20341c0,9.48051 -1.83039,18.54925 -5.49116,27.20341c-3.53527,8.36084 -8.52865,15.767 -14.97872,22.21708c-6.45007,6.45007 -13.85483,11.44204 -22.21708,14.97872c-8.65415,3.66078 -17.7229,5.49116 -27.20341,5.49116c-9.48051,0 -18.54925,-1.83039 -27.20341,-5.49116z"
              style="fill: rgb(29, 27, 132);"> </path>
        <path d="M273.12992,179.08593l-56.45013,35.28222c-1.10416,0.68957 -1.65694,1.83885 -1.65835,2.98813v0.00705c0.00141,1.14928 0.55419,2.29715 1.65835,2.98813l16.78232,10.48877l35.92807,-22.45681c3.43233,-2.14485 7.78691,-2.14485 11.21924,0l35.92948,22.45681l16.78091,-10.48877c1.10275,-0.68957 1.65553,-1.83744 1.65835,-2.98531v-0.0141c-0.00282,-1.14787 -0.5556,-2.29433 -1.65835,-2.9839l-56.45013,-35.28222c-1.14364,-0.71495 -2.59611,-0.71495 -3.73975,0z"
              style="fill: rgb(29, 27, 132);"> </path>
        <path d="M240.11806,235.00021l33.01186,20.63206c1.14364,0.71495 2.59611,0.71495 3.73975,0l33.01186,-20.63206l-33.01186,-20.63206c-1.14364,-0.71495 -2.59611,-0.71495 -3.73975,0z"
              style="fill: rgb(29, 27, 132);"> </path>
        <path d="M334.97815,252.64696c-0.00282,1.14928 -0.5556,2.29574 -1.65835,2.98531l-56.45013,35.2808c-0.57111,0.35818 -1.2212,0.53727 -1.86987,0.53727c-0.64867,0 -1.29735,-0.17909 -1.86987,-0.53727l-56.45013,-35.2808c-1.10416,-0.68957 -1.65694,-1.83885 -1.65835,-2.98813v-0.00705c0.00141,-1.14928 0.55419,-2.29856 1.65835,-2.98813l16.78232,-10.48877l35.92807,22.4554c3.43233,2.14626 7.78691,2.14626 11.21924,0l35.92948,-22.4554l16.78091,10.48877c1.10275,0.68957 1.65553,1.83603 1.65835,2.98531z"
              style="fill: rgb(29, 27, 132);"> </path>
    </g>

    <g fill-rule="nonzero"
       style="fill: rgb(29, 27, 132); opacity: 1;">
        <path d="M266.29932,337.9976c-0.55505,-0.55939 -1.20703,-1.07199 -1.93458,-1.47456c-0.67253,-0.36478 -1.3155,-0.72544 -1.93713,-1.02287c-0.4229,-0.20951 -0.78668,-0.41079 -1.12089,-0.60796c-0.30876,-0.16349 -0.55428,-0.34833 -0.77434,-0.49948c-0.16094,-0.14293 -0.25863,-0.3072 -0.33088,-0.4378c-0.06813,-0.16016 -0.07713,-0.31209 -0.04423,-0.54861c0.03701,-0.26608 0.12493,-0.46481 0.23007,-0.57073c0.14704,-0.1905 0.31132,-0.2882 0.50515,-0.38178c0.2234,-0.08947 0.44269,-0.14938 0.68332,-0.14604c0.2743,-0.02212 0.5445,-0.01467 0.81058,0.02234c0.5026,0.06991 1.01419,0.29176 1.5389,0.63597c0.49515,0.3401 0.88927,0.75656 1.18235,1.24938c0.06813,0.16016 0.23318,0.27353 0.41057,0.2982c0.20284,0.05835 0.39256,-0.00567 0.53138,-0.13704l3.37513,-2.81539c0.13882,-0.13137 0.21851,-0.27097 0.24319,-0.44836c0.02056,-0.14782 -0.04346,-0.33755 -0.14526,-0.47225c-0.76767,-0.98074 -1.74152,-1.7792 -2.89197,-2.39128c-1.12089,-0.60796 -2.27057,-1.00897 -3.42358,-1.16936c-0.94606,-0.1316 -1.91268,-0.11537 -2.89165,-0.01045c-0.98307,0.13448 -1.8939,0.39956 -2.74071,0.85436c-0.84681,0.4548 -1.56636,1.07799 -2.16276,1.89912c-0.62597,0.81702 -1.01053,1.84844 -1.17914,3.06058c-0.13571,0.97563 -0.10715,1.85356 0.11936,2.60834c0.22651,0.75478 0.55405,1.43321 0.98674,2.00571c0.4368,0.54294 0.97051,1.03909 1.5798,1.42521c0.55016,0.37789 1.13401,0.73033 1.75564,1.02776c0.59207,0.29331 1.12912,0.54883 1.57747,0.79202c0.41879,0.23907 0.77845,0.46992 1.04942,0.68843c0.24141,0.2144 0.42368,0.42057 0.51315,0.64397c0.0977,0.16427 0.10259,0.34577 0.06557,0.61185c-0.03701,0.26608 -0.10359,0.52805 -0.24652,0.68898c-0.11337,0.16505 -0.25219,0.29642 -0.41646,0.39412c-0.19384,0.09358 -0.44269,0.14938 -0.68743,0.17561c-0.2743,0.02212 -0.57817,0.04012 -0.87382,-0.001c-0.65042,-0.09047 -1.30161,-0.39201 -1.90268,-0.83726c-0.63063,-0.44936 -1.13067,-0.97096 -1.47055,-1.56069c-0.0977,-0.16427 -0.26274,-0.27764 -0.44013,-0.30231c-0.17739,-0.02467 -0.363,0.00978 -0.50182,0.14115l-3.45971,2.77349c-0.27353,0.23318 -0.32699,0.61752 -0.12337,0.88693c0.74711,1.12856 1.7932,2.05762 3.07914,2.77895c1.29005,0.69177 2.64257,1.15113 4.09122,1.35264c0.97563,0.13571 1.9677,0.15316 2.95489,-0.01089c0.98719,-0.16405 1.90624,-0.48825 2.75716,-0.97262c0.82136,-0.48848 1.54913,-1.17079 2.12008,-2.0256c0.57095,-0.85481 0.93006,-1.91991 1.10278,-3.16161c0.15627,-1.12345 0.08092,-2.0983 -0.25563,-2.92866c-0.31109,-0.79668 -0.75689,-1.49156 -1.30783,-2.08052z"
              style="fill: rgb(29, 27, 132);"> </path>
        <path d="M298.65535,347.78687l-9.53537,-10.95126l5.96402,-9.71827c0.04802,-0.09632 0.06642,-0.1889 -0.00029,-0.24065c-0.04083,-0.0851 -0.13714,-0.13312 -0.22599,-0.12191l-7.1074,0.89699c-0.05923,0.00747 -0.14433,0.0483 -0.16647,0.11127l-3.41803,5.57605l-0.64658,-5.12325c-0.01869,-0.14807 -0.11874,-0.2257 -0.2372,-0.21075l-5.56746,0.70264c-0.11846,0.01495 -0.2257,0.11874 -0.20701,0.26681l2.67976,21.23335c0.01869,0.14807 0.14836,0.22196 0.26681,0.20701l5.56746,-0.70264c0.11846,-0.01495 0.19609,-0.115 0.1774,-0.26308l-0.8185,-6.4855l0.65037,-1.04483l6.05042,6.93838c0.07044,0.08137 0.13341,0.10351 0.22225,0.09229l6.21897,-0.78487c0.05923,-0.00747 0.1406,-0.07792 0.16274,-0.14088c0.04802,-0.09632 0.00719,-0.18142 -0.0299,-0.23691z"
              style="fill: rgb(29, 27, 132);"> </path>
    </g>
    <g fill-rule="evenodd"
       style="fill: rgb(29, 27, 132); opacity: 1;">
        <path d="M224.77981,116.14751c-15.43626,6.52903 -29.10177,15.74092 -40.99651,27.63569c-11.89477,11.89475 -21.10666,25.56025 -27.63569,40.99651c-6.76275,15.98909 -10.14525,32.72338 -10.14751,50.20286c-0.0001,0.00578 -0.0001,0.01156 -0.0001,0.01733c0,17.48589 3.38257,34.22579 10.14771,50.22059c6.52883,15.43591 15.74069,29.10114 27.63559,40.99571c11.89449,11.89457 25.56,21.10656 40.99651,27.63599c15.9944,6.76521 32.73447,10.14781 50.22019,10.14781c17.48589,0 34.22569,-3.38227 50.22049,-10.14781c15.43591,-6.52876 29.10114,-15.74076 40.99571,-27.63599c11.89457,-11.8939 21.10656,-25.55914 27.63599,-40.99571c6.76521,-15.99447 10.14781,-32.73467 10.14781,-50.22059c0,-17.48569 -3.38227,-34.22579 -10.14781,-50.22019c-6.52876,-15.43625 -15.74043,-29.10175 -27.63499,-40.99651c-11.89523,-11.89477 -25.5608,-21.10666 -40.99671,-27.63569c-15.99447,-6.76501 -32.73463,-10.14751 -50.22049,-10.14751c-17.48572,0 -34.22579,3.3825 -50.22019,10.14751zM295.92375,143.86091l-6.51598,-12.97696l8.19167,-7.93175c0.07073,-0.08139 0.11158,-0.16647 0.05978,-0.23322c-0.01893,-0.09255 -0.10062,-0.16299 -0.18929,-0.17424l-7.10715,-0.89692c-0.05918,-0.00747 -0.15173,0.01086 -0.18889,0.06635l-4.69623,4.55197l0.64657,-5.12322c0.01873,-0.14804 -0.05888,-0.24807 -0.17743,-0.26311l-5.56745,-0.70256c-0.11845,-0.01494 -0.24807,0.05888 -0.2668,0.20702l-2.67971,21.23329c-0.01873,0.14804 0.08857,0.25185 0.20702,0.2668l5.56745,0.70266c0.11845,0.01494 0.21848,-0.06266 0.23721,-0.21071l0.81852,-6.48549l0.88955,-0.8505l4.13683,8.22405c0.04802,0.09634 0.10351,0.1334 0.19238,0.14466l6.2188,0.78485c0.05978,0.00747 0.15542,-0.04055 0.19228,-0.09604c0.07073,-0.08139 0.0528,-0.17395 0.03088,-0.23691zM266.06493,130.31708c-0.68662,-0.38674 -1.45383,-0.70186 -2.26358,-0.89065c-0.74659,-0.16737 -1.46359,-0.33882 -2.14274,-0.45529c-0.46405,-0.08618 -0.86893,-0.18052 -1.24432,-0.27905c-0.34161,-0.07303 -0.62824,-0.18381 -0.88128,-0.26919c-0.19377,-0.09355 -0.33265,-0.22495 -0.43775,-0.33085c-0.10929,-0.13549 -0.1594,-0.27915 -0.19228,-0.51566c-0.03706,-0.2661 -0.00667,-0.48129 0.06555,-0.6119c0.08946,-0.22336 0.22087,-0.36224 0.38176,-0.5052c0.19058,-0.14695 0.38515,-0.2645 0.61758,-0.32697c0.25783,-0.09614 0.51984,-0.16269 0.78584,-0.19965c0.50261,-0.06994 1.05533,0.00389 1.65407,0.19178c0.56916,0.19208 1.062,0.48517 1.47844,0.87929c0.10929,0.13549 0.29897,0.19945 0.47641,0.17484c0.21101,0.0007 0.37608,-0.11268 0.47382,-0.27686l2.47857,-3.62974c0.09773,-0.16418 0.13629,-0.32029 0.11158,-0.49763c-0.02052,-0.14784 -0.1339,-0.31292 -0.26859,-0.41474c-1.00621,-0.73394 -2.16097,-1.23635 -3.43477,-1.51121c-1.24432,-0.27895 -2.45974,-0.35098 -3.6128,-0.19058c-0.94604,0.1316 -1.87156,0.41105 -2.78472,0.77917c-0.90908,0.3976 -1.71295,0.90121 -2.40345,1.56989c-0.6906,0.66858 -1.21274,1.46459 -1.56242,2.4173c-0.37917,0.9568 -0.46764,2.05407 -0.29907,3.26621c0.13569,0.97563 0.40278,1.81238 0.82669,2.47668c0.4239,0.6643 0.92422,1.22758 1.49667,1.66025c0.56846,0.40318 1.21732,0.73483 1.90882,0.93996c0.63242,0.2134 1.29024,0.39312 1.96949,0.50958c0.64965,0.12065 1.23605,0.21987 1.73377,0.33145c0.46814,0.11576 0.8771,0.2396 1.19749,0.37589c0.29071,0.14037 0.52233,0.28901 0.66938,0.4795c0.13878,0.13141 0.19307,0.30465 0.23003,0.57075c0.03706,0.2661 0.04453,0.53628 -0.04912,0.73005c-0.06396,0.18979 -0.16169,0.35407 -0.2931,0.49285c-0.16089,0.14296 -0.38505,0.2645 -0.61339,0.35656c-0.25783,0.09614 -0.54525,0.19636 -0.84094,0.23751c-0.65035,0.09046 -1.35918,-0.02192 -2.05895,-0.28622c-0.72926,-0.26012 -1.35271,-0.62545 -1.84067,-1.10006c-0.13878,-0.13141 -0.32846,-0.19536 -0.5059,-0.17076c-0.17733,0.02471 -0.3465,0.10849 -0.44423,0.27277l-2.57142,3.6124c-0.19955,0.29897 -0.14605,0.68333 0.12334,0.88696c1.02674,0.88178 2.28669,1.49009 3.7207,1.8331c1.42992,0.31342 2.85645,0.38625 4.3051,0.1847c0.97563,-0.13569 1.93482,-0.38963 2.83971,-0.81693c0.90493,-0.42726 1.7006,-0.98997 2.38702,-1.68815c0.65693,-0.69409 1.17079,-1.54917 1.4868,-2.52739c0.31601,-0.97812 0.3708,-2.10079 0.19805,-3.34252c-0.15631,-1.12347 -0.49484,-2.04072 -1.04517,-2.74766c-0.51676,-0.68153 -1.13523,-1.22838 -1.82603,-1.64461zM275,155.2719c22.01614,0 40.80825,7.78393 56.37632,23.35178c15.56808,15.56788 23.35211,34.35995 23.35211,56.37622c0,22.01674 -7.78371,40.80901 -23.35211,56.37642c-15.56808,15.56808 -34.36018,23.35211 -56.37632,23.35211c-22.01634,0 -40.80841,-7.78371 -56.37622,-23.35211c-15.56787,-15.56808 -23.3518,-34.36022 -23.3518,-56.37642c0,-22.01627 7.78393,-40.80835 23.3518,-56.37622c15.56788,-15.56785 34.35995,-23.35178 56.37622,-23.35178zM158.91529,284.0489c-6.41286,-15.16094 -9.71344,-31.00976 -9.90173,-47.54646h43.26512c0.34748,22.19938 8.42091,41.19868 24.2203,56.99788c16.15453,16.1552 35.65488,24.2328 58.50103,24.2328c22.84635,0 42.34646,-8.0776 58.50033,-24.2328c15.79987,-15.79921 23.87348,-34.7985 24.22084,-56.99788h43.26517c-0.18796,16.5367 -3.48854,32.38551 -9.90173,47.54646c-6.37667,15.07659 -15.37414,28.42436 -26.99241,40.04329c-11.61894,11.61827 -24.9667,20.61574 -40.04329,26.99241c-15.61988,6.60713 -31.96951,9.9107 -49.0489,9.9107c-17.07942,0 -33.42929,-3.30357 -49.0496,-9.9107c-15.07635,-6.37667 -28.42377,-15.37414 -40.04227,-26.99241c-11.61836,-11.61827 -20.61597,-24.96604 -26.99284,-40.04329z"
              style="fill: rgb(29, 27, 132);"> </path>
    </g>


</svg>